# xmcd
#
# Track frame offsets: 
#        150
#        26385
#        48715
#        77532
#        99002
#        119082
#        146255
#        166442
#        186262
#        190450
#        213422
#        244172
#
# Disc length: 3549 seconds
#
# Revision: 1
# Processed by: cddbd v1.5.2PL0 Copyright (c) Steve Scherf et al.
# Submitted via: ExactAudioCopy v0.99pb5
#
DISCID=a30ddb0c
DTITLE=Michael Bellar - The As-Is Ensemble - Turned On Turned Up
DYEAR=2009
DGENRE=Jazz
TTITLE0=Squashing Polyanna
TTITLE1=Fred Jones Pt. 2
TTITLE2=All Things Rabbit
TTITLE3=Heavyweight Love Match
TTITLE4=Sublime
TTITLE5=Fur Turban
TTITLE6=Three Legged Dog
TTITLE7=The Damage done
TTITLE8=Man, You Weren't Even There
TTITLE9=Unravel
TTITLE10=Misty Mountain Hop
TTITLE11=Yoga For Prison Girls
EXTD=YEAR: 2009
EXTT0=
EXTT1=
EXTT2=
EXTT3=
EXTT4=
EXTT5=
EXTT6=
EXTT7=
EXTT8=
EXTT9=
EXTT10=
EXTT11=
PLAYORDER=
